<svg width="100" height="100" viewBox="0 0 100 100" fill="none" xmlns="http://www.w3.org/2000/svg">
<path d="M12.3752 53.8333C11.145 54.5724 10.1265 55.6167 9.41844 56.8649C8.71036 58.1132 8.33664 59.5232 8.3335 60.9583V74.4583C8.33664 75.8934 8.71036 77.3034 9.41844 78.5517C10.1265 79.8 11.145 80.8442 12.3752 81.5833L24.8752 89.0833C26.1713 89.862 27.6548 90.2734 29.1668 90.2734C30.6789 90.2734 32.1624 89.862 33.4585 89.0833L50.0002 79.1666V56.25L29.1668 43.75L12.3752 53.8333Z" stroke="white" stroke-width="2.5" stroke-linecap="round" stroke-linejoin="round"/>
<path d="M29.1665 68.75L9.4165 56.875" stroke="white" stroke-width="2.5" stroke-linecap="round" stroke-linejoin="round"/>
<path d="M29.1665 68.75L49.9999 56.25" stroke="white" stroke-width="2.5" stroke-linecap="round" stroke-linejoin="round"/>
<path d="M29.1665 68.75V90.2916" stroke="white" stroke-width="2.5" stroke-linecap="round" stroke-linejoin="round"/>
<path d="M50 56.25V79.1666L66.5417 89.0833C67.8378 89.862 69.3213 90.2734 70.8333 90.2734C72.3454 90.2734 73.8289 89.862 75.125 89.0833L87.625 81.5833C88.8552 80.8442 89.8737 79.8 90.5818 78.5517C91.2898 77.3034 91.6636 75.8934 91.6667 74.4583V60.9583C91.6636 59.5232 91.2898 58.1132 90.5818 56.8649C89.8737 55.6167 88.8552 54.5724 87.625 53.8333L70.8333 43.75L50 56.25Z" stroke="white" stroke-width="2.5" stroke-linecap="round" stroke-linejoin="round"/>
<path d="M70.8333 68.75L50 56.25" stroke="white" stroke-width="2.5" stroke-linecap="round" stroke-linejoin="round"/>
<path d="M70.8335 68.75L90.5835 56.875" stroke="white" stroke-width="2.5" stroke-linecap="round" stroke-linejoin="round"/>
<path d="M70.8335 68.75V90.2916" stroke="white" stroke-width="2.5" stroke-linecap="round" stroke-linejoin="round"/>
<path d="M33.2082 18.4167C31.978 19.1558 30.9595 20.2 30.2515 21.4483C29.5434 22.6966 29.1696 24.1065 29.1665 25.5417V43.75L49.9999 56.25L70.8332 43.75V25.5417C70.8301 24.1065 70.4563 22.6966 69.7483 21.4483C69.0402 20.2 68.0217 19.1558 66.7915 18.4167L54.2915 10.9167C52.9954 10.138 51.5119 9.72659 49.9999 9.72659C48.4878 9.72659 47.0043 10.138 45.7082 10.9167L33.2082 18.4167Z" stroke="white" stroke-width="2.5" stroke-linecap="round" stroke-linejoin="round"/>
<path d="M50 33.3333L30.25 21.4583" stroke="white" stroke-width="2.5" stroke-linecap="round" stroke-linejoin="round"/>
<path d="M50 33.3333L69.75 21.4583" stroke="white" stroke-width="2.5" stroke-linecap="round" stroke-linejoin="round"/>
<path d="M50 56.25V33.3333" stroke="white" stroke-width="2.5" stroke-linecap="round" stroke-linejoin="round"/>
</svg>
