<svg width="63" height="63" viewBox="0 0 63 63" fill="none" xmlns="http://www.w3.org/2000/svg">
<g clip-path="url(#clip0_384_111)">
<path d="M63 31.5C63 14.103 48.897 0 31.5 0C14.103 0 0 14.103 0 31.5C0 48.897 14.103 63 31.5 63C48.897 63 63 48.897 63 31.5Z" fill="url(#paint0_radial_384_111)"/>
<path fill-rule="evenodd" clip-rule="evenodd" d="M38.7692 29.8729C39.5602 29.6276 40.391 29.501 41.23 29.5C42.3542 29.5016 43.4647 29.7294 44.4851 30.1674C45.5054 30.6054 46.4114 31.2433 47.1406 32.0374C47.8698 32.8314 48.4051 33.7627 48.7094 34.767C49.0137 35.7714 49.08 36.825 48.9036 37.8554C48.7272 38.8858 48.3123 39.8685 47.6876 40.7358C47.0628 41.6032 46.243 42.3347 45.2845 42.8799C44.326 43.4251 43.2515 43.7711 42.1351 43.8941C41.0187 44.0171 39.8869 43.9142 38.8175 43.5924L37.8933 44.459C37.7451 44.5931 37.5459 44.6678 37.3388 44.6667H35.7823V46.1111C35.7823 46.3026 35.7004 46.4863 35.5544 46.6218C35.4085 46.7572 35.2105 46.8334 35.0041 46.8334H33.4477V48.2778C33.4477 48.4693 33.3657 48.653 33.2197 48.7884C33.0738 48.9239 32.8758 49 32.6694 49H28.7782C28.5719 49 28.3739 48.9239 28.2279 48.7884C28.082 48.653 28 48.4693 28 48.2778V44.6667C27.9989 44.4745 28.0792 44.2896 28.2237 44.1521L33.7851 39H36.7052C37.2526 39 37.7776 38.8049 38.1647 38.4576C38.5518 38.1103 38.7692 37.6393 38.7692 37.1481V29.8729ZM34.9343 32.4823C34.2125 33.4048 33.7359 34.4725 33.5435 35.5985C33.5608 35.4973 33.5804 35.3966 33.6023 35.2963H33.609C33.8827 35.2963 34.1452 35.1988 34.3388 35.0251C34.5323 34.8515 34.6411 34.616 34.6411 34.3703C34.6411 34.1248 34.5323 33.8893 34.3388 33.7157C34.2979 33.679 34.254 33.6457 34.2074 33.616C34.4114 33.2196 34.6543 32.8401 34.9343 32.4823ZM42.3109 36.1177C42.5668 36.2764 42.8677 36.3611 43.1756 36.3611C43.5884 36.3611 43.9843 36.2089 44.2761 35.938C44.568 35.6671 44.7321 35.2998 44.7321 34.9167C44.7321 34.631 44.6407 34.3517 44.4697 34.1142C44.2987 33.8767 44.0556 33.6915 43.7712 33.5821C43.4868 33.4728 43.1739 33.4443 42.8719 33.5C42.57 33.5557 42.2927 33.6933 42.075 33.8953C41.8573 34.0973 41.7091 34.3546 41.649 34.6348C41.589 34.915 41.6198 35.2055 41.7376 35.4694C41.8554 35.7333 42.0549 35.959 42.3109 36.1177Z" fill="white"/>
<path fill-rule="evenodd" clip-rule="evenodd" d="M32.0609 22.3334H36.7051C37.2525 22.3334 37.7776 22.5285 38.1646 22.8758C38.5517 23.223 38.7692 23.6941 38.7692 24.1852V29.873C38.4022 29.9869 38.0436 30.1263 37.6968 30.2906C36.6027 30.8089 35.6561 31.5599 34.9343 32.4824C34.6544 32.8401 34.4114 33.2197 34.2074 33.616C34.0338 33.5052 33.8249 33.4445 33.609 33.4445H19.1603C18.8865 33.4445 18.624 33.542 18.4305 33.7157C18.2369 33.8893 18.1282 34.1248 18.1282 34.3704C18.1282 34.616 18.2369 34.8515 18.4305 35.0251C18.624 35.1988 18.8865 35.2963 19.1603 35.2963H33.609H33.6023C33.5804 35.3966 33.5608 35.4973 33.5435 35.5985C33.3511 36.7245 33.4483 37.8767 33.8271 38.9611L33.7851 39H16.0641C15.5167 39 14.9917 38.8049 14.6046 38.4576C14.2175 38.1103 14 37.6393 14 37.1482V24.1852C14 23.6941 14.2175 23.223 14.6046 22.8758C14.9917 22.5285 15.5167 22.3334 16.0641 22.3334H20.7083V19.0926C20.7083 17.742 21.3064 16.4466 22.3709 15.4916C23.4354 14.5365 24.8792 14 26.3846 14C27.89 14 29.3338 14.5365 30.3984 15.4916C31.4628 16.4466 32.0609 17.742 32.0609 19.0926V22.3334ZM23.8304 16.801C23.153 17.4088 22.7725 18.2331 22.7725 19.0926V22.3334H29.9968V19.0926C29.9968 18.2331 29.6162 17.4088 28.9388 16.801C28.2614 16.1933 27.3426 15.8519 26.3846 15.8519C25.4266 15.8519 24.5078 16.1933 23.8304 16.801ZM19.1603 31.5926H33.609C33.8827 31.5926 34.1452 31.4951 34.3388 31.3214C34.5323 31.1478 34.641 30.9123 34.641 30.6667C34.641 30.4211 34.5323 30.1856 34.3388 30.012C34.1452 29.8383 33.8827 29.7408 33.609 29.7408H19.1603C18.8865 29.7408 18.624 29.8383 18.4305 30.012C18.2369 30.1856 18.1282 30.4211 18.1282 30.6667C18.1282 30.9123 18.2369 31.1478 18.4305 31.3214C18.624 31.4951 18.8865 31.5926 19.1603 31.5926ZM19.1603 27.8889H33.609C33.8827 27.8889 34.1452 27.7914 34.3388 27.6177C34.5323 27.4441 34.641 27.2086 34.641 26.963C34.641 26.7174 34.5323 26.4819 34.3388 26.3083C34.1452 26.1346 33.8827 26.0371 33.609 26.0371H19.1603C18.8865 26.0371 18.624 26.1346 18.4305 26.3083C18.2369 26.4819 18.1282 26.7174 18.1282 26.963C18.1282 27.2086 18.2369 27.4441 18.4305 27.6177C18.624 27.7914 18.8865 27.8889 19.1603 27.8889Z" fill="white"/>
</g>
<defs>
<radialGradient id="paint0_radial_384_111" cx="0" cy="0" r="1" gradientUnits="userSpaceOnUse" gradientTransform="translate(62.2628 16.9334) rotate(171.018) scale(63.0358 2452.87)">
<stop stop-color="#FE79B9"/>
<stop offset="0.534364" stop-color="#AD00FF"/>
<stop offset="1" stop-color="#2489FF"/>
</radialGradient>
<clipPath id="clip0_384_111">
<rect width="63" height="63" fill="white"/>
</clipPath>
</defs>
</svg>
